<svg xmlns="http://www.w3.org/2000/svg" width="100%" height="auto" viewBox="0 0 1024 434" version="1.1">
	<path d="M 279.757 65.555 C 219.721 74.901, 168.442 120.165, 151.431 178.830 C 146.456 195.986, 145.520 203.845, 145.576 228 C 145.621 247.367, 145.939 251.962, 147.864 261 C 158.546 311.141, 189.254 351.412, 234.051 374.026 C 249.821 381.987, 272.149 388.300, 290.500 389.987 C 303.821 391.212, 439.803 391.361, 438.450 390.149 C 437.927 389.681, 434.350 388.072, 430.500 386.573 C 426.650 385.074, 419.273 381.632, 414.106 378.924 L 404.712 374 353.606 373.974 C 325.498 373.960, 298.181 373.528, 292.902 373.014 C 257.907 369.609, 229.057 356.065, 204.486 331.508 C 183.615 310.649, 171.061 287.606, 164.811 258.688 C 161.839 244.938, 161.558 211.318, 164.301 197.730 C 176.416 137.725, 223.119 92.187, 282.500 82.479 C 289.679 81.306, 303.164 81.007, 349.137 81.004 L 406.774 81 415.284 76.473 C 419.964 73.983, 428.453 70.172, 434.147 68.004 L 444.500 64.062 366.500 64.128 C 305.925 64.179, 286.547 64.498, 279.757 65.555 M 486.736 65.088 C 420.003 74.858, 365.981 126.179, 352.578 192.540 C 348.788 211.302, 348.752 243.201, 352.499 261.343 C 367.053 331.802, 423.268 382.549, 495 389.981 C 506.471 391.170, 644.802 391.349, 643.450 390.174 C 642.927 389.720, 640.475 388.713, 638 387.937 C 635.525 387.162, 627.913 383.709, 621.084 380.264 L 608.668 374 558.584 373.999 C 506.125 373.998, 492.367 373.291, 477.500 369.833 C 421.222 356.743, 377.779 310.385, 368.479 253.500 C 366.453 241.107, 366.520 212.178, 368.602 199.926 C 377.554 147.256, 415.715 103.549, 467 87.228 C 485.699 81.277, 489.534 81, 553.343 81 L 611.334 81 617.842 77.423 C 624.641 73.686, 638.644 67.605, 645.500 65.413 C 648.818 64.352, 636.110 64.143, 571 64.189 C 527.825 64.219, 489.906 64.624, 486.736 65.088 M 699 66.122 C 682.030 68.075, 662.924 73.597, 647.393 81.038 C 615.190 96.467, 586.617 124.846, 571.567 156.349 C 549.938 201.625, 549.914 252.831, 571.501 297.500 C 599.697 355.843, 659.250 391.454, 724.027 388.703 C 790.902 385.864, 849.384 342.022, 870.395 278.979 C 876.980 259.219, 878.397 250.013, 878.397 227 C 878.397 204.077, 876.975 194.768, 870.508 175.361 C 846.663 103.800, 773.966 57.497, 699 66.122 M 700.500 96.657 C 699.400 96.891, 694.915 97.772, 690.534 98.615 C 666.452 103.250, 642.896 116.031, 624.464 134.464 C 613.248 145.680, 605.219 157.049, 598.508 171.216 C 594.334 180.027, 593.310 183, 594.450 183 C 594.698 183, 617.908 187.763, 646.029 193.584 C 692.243 203.150, 697.320 204.021, 698.847 202.639 C 702.786 199.073, 709.409 197.044, 717.177 197.022 C 724.015 197.002, 725.582 197.379, 731.510 200.469 L 738.164 203.938 788.627 193.469 C 816.381 187.711, 839.294 183, 839.545 183 C 842.421 183, 831.153 160.362, 822.621 149 C 801.943 121.463, 772.524 103.574, 737.891 97.479 C 730.185 96.123, 705.561 95.582, 700.500 96.657 M 590.035 194.934 C 588.646 197.530, 588.726 201.326, 590.200 202.800 C 593.302 205.902, 600 202.844, 600 198.326 C 600 193.664, 592.146 190.991, 590.035 194.934 M 835.333 195.615 C 833.798 197.958, 833.773 198.505, 835.091 200.865 C 838.075 206.206, 846.721 203.883, 845.346 198.110 C 844.428 194.257, 843.088 193, 839.901 193 C 837.926 193, 836.518 193.806, 835.333 195.615 M 611.039 199.189 C 608.451 201.966, 608.436 205.436, 611 208 C 615.130 212.130, 623 209.179, 623 203.500 C 623 197.700, 615.084 194.847, 611.039 199.189 M 813.073 199.635 C 811.933 201.084, 811 202.823, 811 203.500 C 811 204.177, 811.933 205.916, 813.073 207.365 C 817.059 212.433, 825 209.860, 825 203.500 C 825 197.140, 817.059 194.567, 813.073 199.635 M 634.923 203.923 C 631.752 207.094, 631.365 208.939, 633.163 212.316 C 635.941 217.531, 641.550 218.541, 645.545 214.545 C 649.541 210.550, 648.531 204.941, 643.316 202.163 C 639.939 200.365, 638.094 200.752, 634.923 203.923 M 788.923 203.923 C 785.628 207.219, 785.361 208.863, 787.463 212.928 C 789.946 217.730, 795.604 218.487, 799.545 214.545 C 803.041 211.050, 802.803 206.854, 798.923 203.589 C 794.944 200.240, 792.525 200.321, 788.923 203.923 M 664.270 206.785 C 658.406 207.702, 655.983 217.074, 660.455 221.545 C 665.966 227.057, 675 223.128, 675 215.220 C 675 209.492, 670.347 205.835, 664.270 206.785 M 764.163 207.573 C 755.654 211.151, 758.184 224, 767.399 224 C 775.234 224, 779.352 215.197, 774.121 209.629 C 771.280 206.604, 768.052 205.938, 764.163 207.573 M 586.275 213.726 C 585.245 216.410, 586.867 246.564, 588.415 253.500 C 594.325 279.987, 605.775 300.816, 624.980 320.017 C 640.382 335.415, 657.007 345.689, 676.797 352.039 C 687.085 355.340, 699.554 357.779, 700.633 356.701 C 701.015 356.318, 700.745 332.492, 700.032 303.754 C 698.832 255.372, 698.603 251.410, 696.932 250.240 C 695.939 249.544, 693.678 246.739, 691.907 244.005 C 690.135 241.272, 687.969 238.818, 687.093 238.552 C 686.217 238.286, 674.025 235.077, 660 231.420 C 645.975 227.763, 623.770 221.972, 610.655 218.551 C 591.552 213.568, 586.704 212.609, 586.275 213.726 M 712.095 213.274 C 710.222 213.948, 707.323 216.197, 705.653 218.272 C 698.499 227.154, 704.113 240.132, 715.786 241.698 C 724.555 242.874, 733.084 234.069, 731.663 225.308 C 730.160 216.050, 720.643 210.197, 712.095 213.274 M 797 225.418 C 771.425 232.156, 749.292 237.970, 747.817 238.337 C 746.341 238.704, 744.866 239.848, 744.538 240.879 C 744.211 241.910, 741.779 245.227, 739.133 248.251 L 734.323 253.748 733.656 283.624 C 733.289 300.056, 732.698 323.455, 732.343 335.622 L 731.696 357.745 737.598 356.856 C 745.708 355.635, 759.774 351.568, 768.610 347.890 C 799.211 335.151, 825.084 308.952, 838.516 277.103 C 844.900 261.965, 847.179 250.518, 847.742 230.750 L 848.248 213 845.874 213.083 C 844.568 213.129, 822.575 218.679, 797 225.418 M 710.455 272.455 C 702.703 280.206, 713.712 291.734, 722.365 284.927 C 725.942 282.114, 726.111 275.393, 722.686 272.174 C 719.420 269.106, 713.671 269.238, 710.455 272.455 M 711.174 300.314 C 707.207 304.537, 708.697 311.001, 714.069 312.874 C 716.489 313.718, 717.799 313.638, 719.969 312.516 C 723.092 310.901, 724 309.190, 724 304.918 C 724 298.535, 715.659 295.541, 711.174 300.314 M 715 323.778 C 707.632 326.151, 708.782 337, 716.402 337 C 720.434 337, 723 334.404, 723 330.326 C 723 326.181, 718.634 322.607, 715 323.778 M 713.223 348.557 C 710.774 350.272, 710.211 354.811, 712.200 356.800 C 712.860 357.460, 714.795 358, 716.500 358 C 718.205 358, 720.140 357.460, 720.800 356.800 C 722.593 355.007, 722.248 350.534, 720.171 348.655 C 717.889 346.589, 716.068 346.564, 713.223 348.557" stroke="none" fill="black" fill-rule="evenodd"/>
</svg>